# xmcd CD database file
#
# Track frame offsets:
#	150
#	12704
#	38931
#	65548
#	86386
#	106799
#	128176
#	143640
#	168042
#	185917
#
# Disc length: 2750 seconds
#
# Revision: 0
# Processed by: cddbd v1.5.2PL0 Copyright (c) Steve Scherf et al.
# Submitted via: CDex 1.77
#
DISCID=830abc0a
DTITLE=The Two - Sweet Dirty Blues
DYEAR=2014
DGENRE=Blues
TTITLE0=Sky
TTITLE1=Mojo On
TTITLE2=Roseda
TTITLE3=Put On Your SHoes
TTITLE4=Promiss
TTITLE5=Blues In My Bones
TTITLE6=Mama Nette
TTITLE7=In The Night
TTITLE8=Live My Life
TTITLE9=On and On
EXTD=YEAR: 2014
EXTT0=
EXTT1=
EXTT2=
EXTT3=
EXTT4=
EXTT5=
EXTT6=
EXTT7=
EXTT8=
EXTT9=
PLAYORDER=
